<?xml version="1.0" encoding="utf-8"?>
<!-- Generator: Adobe Illustrator 23.0.2, SVG Export Plug-In . SVG Version: 6.00 Build 0)  -->
<svg version="1.1" id="Layer_1" xmlns="http://www.w3.org/2000/svg" xmlns:xlink="http://www.w3.org/1999/xlink" x="0px" y="0px"
	 viewBox="0 0 150 150" style="enable-background:new 0 0 150 150;" xml:space="preserve">
<style type="text/css">
	.st0{fill:#150E20;}
</style>
<path class="st0" d="M110.15,42.9c-1.89,0-3.78,0.28-5.67,0.84c-1.89,0.56-3.63,1.31-5.22,2.26c-1.59,0.95-3.03,2.08-4.32,3.42
	c-1.29,1.33-2.32,2.81-3.09,4.45h-0.26v-9.41h-11.6v3.33c-1.77-1.28-3.87-2.35-6.31-3.2c-3.22-1.12-7.07-1.68-11.54-1.68
	c-4.3,0-8.59,0.75-12.89,2.26c-4.3,1.5-8.08,3.76-11.34,6.77l6.96,7.22c1.03-0.77,2.1-1.59,3.22-2.45c1.12-0.86,2.36-1.61,3.74-2.26
	c1.37-0.65,2.9-1.18,4.58-1.61c1.68-0.43,3.63-0.64,5.86-0.64c2.49,0,4.64,0.37,6.44,1.1c1.8,0.73,3.31,1.72,4.51,2.96
	c1.2,1.25,2.1,2.64,2.71,4.19c0.6,1.55,0.9,3.09,0.9,4.64v2.58h-8.51c-4.64,0-9,0.37-13.08,1.1c-4.08,0.73-7.65,1.93-10.7,3.61
	c-3.05,1.67-5.46,3.85-7.22,6.51c-1.76,2.66-2.64,5.97-2.64,9.92c0,3.01,0.56,5.65,1.68,7.93c1.12,2.28,2.64,4.19,4.58,5.73
	c1.93,1.55,4.19,2.71,6.77,3.48c2.58,0.77,5.28,1.16,8.12,1.16c4.64,0,8.72-0.82,12.24-2.45c3.52-1.63,6.57-4.43,9.15-8.38h0.26
	c0,3.09,0.13,6.19,0.39,9.28h10.31c0,0,0,0,0-0.01h3.41V74.86c0-6.7,1.5-11.64,4.51-14.82c3.01-3.18,7.35-4.77,13.02-4.77
	c0.94,0,1.89,0.09,2.83,0.26c0.94,0.17,1.89,0.39,2.84,0.64l0.52-12.5C113.76,43.16,112.04,42.9,110.15,42.9z M76.84,80.02
	c0,2.06-0.3,4.15-0.9,6.25c-0.6,2.11-1.59,4.02-2.96,5.73c-1.38,1.72-3.18,3.12-5.41,4.19c-2.23,1.08-4.94,1.61-8.12,1.61
	c-4.04,0-7.24-0.77-9.6-2.32c-2.36-1.55-3.54-4.08-3.54-7.6c0-2.4,0.75-4.38,2.26-5.93c1.5-1.55,3.44-2.75,5.8-3.61
	c2.36-0.86,4.98-1.44,7.86-1.74c2.88-0.3,5.69-0.45,8.44-0.45h6.19V80.02z"/>
<path class="st0" d="M75,143c-37.5,0-68-30.5-68-68S37.5,7,75,7s68,30.5,68,68S112.5,143,75,143z M75,11c-35.29,0-64,28.71-64,64
	c0,35.29,28.71,64,64,64c35.29,0,64-28.71,64-64C139,39.71,110.29,11,75,11z"/>
</svg>
